<mxfile host="app.diagrams.net" modified="2024-04-22T06:44:37.573Z" agent="Mozilla/5.0 (Windows NT 10.0; Win64; x64) AppleWebKit/537.36 (KHTML, like Gecko) Chrome/120.0.0.0 YaBrowser/24.1.0.0 Safari/537.36" etag="voZ1jUhHGKkT6CkICUEu" version="24.2.1" type="github">
  <diagram name="Page-1" id="e7e014a7-5840-1c2e-5031-d8a46d1fe8dd">
    <mxGraphModel dx="1628" dy="1427" grid="0" gridSize="10" guides="1" tooltips="1" connect="1" arrows="1" fold="1" page="0" pageScale="1" pageWidth="1169" pageHeight="826" background="none" math="0" shadow="0">
      <root>
        <mxCell id="0" />
        <mxCell id="1" parent="0" />
        <mxCell id="2" value="Клиент" style="swimlane;whiteSpace=wrap" parent="1" vertex="1">
          <mxGeometry x="156" y="22" width="280" height="782" as="geometry" />
        </mxCell>
        <mxCell id="JVwmZqVuhn_yhW97Rw2u-43" value="" style="edgeStyle=orthogonalEdgeStyle;rounded=0;orthogonalLoop=1;jettySize=auto;html=1;strokeColor=default;align=center;verticalAlign=middle;fontFamily=Helvetica;fontSize=11;fontColor=default;labelBackgroundColor=default;endArrow=open;endFill=0;" parent="2" source="13" edge="1">
          <mxGeometry relative="1" as="geometry">
            <mxPoint x="139.98275862068965" y="92" as="targetPoint" />
          </mxGeometry>
        </mxCell>
        <mxCell id="13" value="" style="ellipse;shape=startState;fillColor=#000000;strokeColor=none;" parent="2" vertex="1">
          <mxGeometry x="125" y="40" width="30" height="30" as="geometry" />
        </mxCell>
        <mxCell id="YSQf1G4QFxF4FJ_mTdTg-38" value="&lt;font style=&quot;font-size: 10px;&quot;&gt;Регистрация на сайте&lt;/font&gt;" style="rounded=1;whiteSpace=wrap;html=1;arcSize=40;fontFamily=Helvetica;fontSize=11;labelBackgroundColor=default;" parent="2" vertex="1">
          <mxGeometry x="80" y="92" width="120" height="40" as="geometry" />
        </mxCell>
        <mxCell id="YSQf1G4QFxF4FJ_mTdTg-44" value="" style="edgeStyle=none;orthogonalLoop=1;jettySize=auto;html=1;rounded=0;strokeColor=default;align=center;verticalAlign=middle;fontFamily=Helvetica;fontSize=11;fontColor=default;labelBackgroundColor=default;endArrow=open;endFill=0;entryX=0;entryY=0.5;entryDx=0;entryDy=0;" parent="2" target="YSQf1G4QFxF4FJ_mTdTg-40" edge="1">
          <mxGeometry width="100" relative="1" as="geometry">
            <mxPoint x="200" y="111.66" as="sourcePoint" />
            <mxPoint x="300" y="111.66" as="targetPoint" />
            <Array as="points" />
          </mxGeometry>
        </mxCell>
        <mxCell id="YSQf1G4QFxF4FJ_mTdTg-45" value="&lt;span style=&quot;font-size: 10px;&quot;&gt;Найти интересующий&lt;/span&gt;&lt;div&gt;&lt;span style=&quot;font-size: 10px;&quot;&gt;объект недвижимости&lt;/span&gt;&lt;/div&gt;" style="rounded=1;whiteSpace=wrap;html=1;arcSize=40;fontFamily=Helvetica;fontSize=11;labelBackgroundColor=default;" parent="2" vertex="1">
          <mxGeometry x="80" y="162" width="120" height="40" as="geometry" />
        </mxCell>
        <mxCell id="YSQf1G4QFxF4FJ_mTdTg-59" value="&lt;div&gt;&lt;span style=&quot;font-size: 10px;&quot;&gt;Запрос на осмотр&lt;/span&gt;&lt;/div&gt;&lt;div&gt;&lt;font style=&quot;font-size: 10px;&quot;&gt;объекта недвижимости&lt;/font&gt;&lt;/div&gt;" style="rounded=1;whiteSpace=wrap;html=1;arcSize=40;fontFamily=Helvetica;fontSize=11;labelBackgroundColor=default;" parent="2" vertex="1">
          <mxGeometry x="80" y="232" width="120" height="40" as="geometry" />
        </mxCell>
        <mxCell id="YSQf1G4QFxF4FJ_mTdTg-48" value="" style="endArrow=open;html=1;rounded=0;strokeColor=default;align=center;verticalAlign=middle;fontFamily=Helvetica;fontSize=11;fontColor=default;labelBackgroundColor=default;edgeStyle=orthogonalEdgeStyle;exitX=0.5;exitY=1;exitDx=0;exitDy=0;entryX=0.5;entryY=0;entryDx=0;entryDy=0;endFill=0;" parent="2" source="YSQf1G4QFxF4FJ_mTdTg-45" target="YSQf1G4QFxF4FJ_mTdTg-59" edge="1">
          <mxGeometry width="50" height="50" relative="1" as="geometry">
            <mxPoint x="375.5" y="372" as="sourcePoint" />
            <mxPoint x="425.5" y="322" as="targetPoint" />
          </mxGeometry>
        </mxCell>
        <mxCell id="YSQf1G4QFxF4FJ_mTdTg-56" value="Отмена" style="text;html=1;align=center;verticalAlign=middle;resizable=0;points=[];autosize=1;strokeColor=none;fillColor=none;fontFamily=Helvetica;fontSize=11;fontColor=default;labelBackgroundColor=default;" parent="2" vertex="1">
          <mxGeometry x="86.5" y="388" width="60" height="30" as="geometry" />
        </mxCell>
        <mxCell id="YSQf1G4QFxF4FJ_mTdTg-57" value="" style="ellipse;shape=endState;fillColor=#000000;strokeColor=#000000;" parent="2" vertex="1">
          <mxGeometry x="125" y="422" width="30" height="30" as="geometry" />
        </mxCell>
        <mxCell id="YSQf1G4QFxF4FJ_mTdTg-73" value="&lt;span style=&quot;font-size: 10px;&quot;&gt;Заключение сделки&lt;/span&gt;" style="rounded=1;whiteSpace=wrap;html=1;arcSize=40;fontFamily=Helvetica;fontSize=11;labelBackgroundColor=default;" parent="2" vertex="1">
          <mxGeometry x="80" y="612" width="120" height="48" as="geometry" />
        </mxCell>
        <mxCell id="YSQf1G4QFxF4FJ_mTdTg-78" value="" style="edgeStyle=orthogonalEdgeStyle;html=1;align=left;verticalAlign=top;endArrow=open;endSize=8;rounded=0;fontFamily=Helvetica;fontSize=11;fontColor=default;labelBackgroundColor=default;exitX=0.5;exitY=1;exitDx=0;exitDy=0;" parent="2" edge="1">
          <mxGeometry x="1" y="52" relative="1" as="geometry">
            <mxPoint x="139.86" y="422" as="targetPoint" />
            <Array as="points" />
            <mxPoint x="-8" y="-2" as="offset" />
            <mxPoint x="139.86" y="392" as="sourcePoint" />
          </mxGeometry>
        </mxCell>
        <mxCell id="YSQf1G4QFxF4FJ_mTdTg-63" value="Отказ" style="text;html=1;align=center;verticalAlign=middle;resizable=0;points=[];autosize=1;strokeColor=none;fillColor=none;fontFamily=Helvetica;fontSize=11;fontColor=default;labelBackgroundColor=default;" parent="2" vertex="1">
          <mxGeometry x="95.5" y="532" width="50" height="30" as="geometry" />
        </mxCell>
        <mxCell id="3" value="Агент недвижимости" style="swimlane;whiteSpace=wrap" parent="1" vertex="1">
          <mxGeometry x="436" y="22" width="280" height="782" as="geometry" />
        </mxCell>
        <mxCell id="YSQf1G4QFxF4FJ_mTdTg-50" value="&lt;span style=&quot;font-size: 10px;&quot;&gt;Подтверждение время&lt;/span&gt;&lt;div&gt;&lt;span style=&quot;font-size: 10px;&quot;&gt;осмотра&lt;/span&gt;&lt;/div&gt;" style="rounded=1;whiteSpace=wrap;html=1;arcSize=40;fontFamily=Helvetica;fontSize=11;labelBackgroundColor=default;" parent="3" vertex="1">
          <mxGeometry x="-200" y="322" width="120" height="40" as="geometry" />
        </mxCell>
        <mxCell id="YSQf1G4QFxF4FJ_mTdTg-51" value="" style="rhombus;whiteSpace=wrap;html=1;fontFamily=Helvetica;fontSize=11;labelBackgroundColor=default;" parent="3" vertex="1">
          <mxGeometry x="-150" y="382" width="20" height="10" as="geometry" />
        </mxCell>
        <mxCell id="YSQf1G4QFxF4FJ_mTdTg-55" value="" style="endArrow=open;html=1;rounded=0;strokeColor=default;align=center;verticalAlign=middle;fontFamily=Helvetica;fontSize=11;fontColor=default;labelBackgroundColor=default;edgeStyle=orthogonalEdgeStyle;exitX=0.5;exitY=1;exitDx=0;exitDy=0;entryX=0.5;entryY=0;entryDx=0;entryDy=0;endFill=0;" parent="3" source="YSQf1G4QFxF4FJ_mTdTg-50" target="YSQf1G4QFxF4FJ_mTdTg-51" edge="1">
          <mxGeometry width="50" height="50" relative="1" as="geometry">
            <mxPoint x="-114.5" y="432" as="sourcePoint" />
            <mxPoint x="-64.5" y="382" as="targetPoint" />
          </mxGeometry>
        </mxCell>
        <mxCell id="YSQf1G4QFxF4FJ_mTdTg-47" value="&lt;span style=&quot;font-size: 10px;&quot;&gt;Согласование&amp;nbsp;&lt;/span&gt;&lt;div&gt;&lt;span style=&quot;font-size: 10px;&quot;&gt;даты и времени&lt;/span&gt;&lt;div&gt;&lt;span style=&quot;font-size: 10px;&quot;&gt;осмотра&lt;/span&gt;&lt;/div&gt;&lt;/div&gt;" style="rounded=1;whiteSpace=wrap;html=1;arcSize=40;fontFamily=Helvetica;fontSize=11;labelBackgroundColor=default;" parent="3" vertex="1">
          <mxGeometry x="80.5" y="272" width="120" height="48" as="geometry" />
        </mxCell>
        <mxCell id="YSQf1G4QFxF4FJ_mTdTg-58" value="&lt;span style=&quot;font-size: 10px;&quot;&gt;Проведение осмотра&lt;/span&gt;&lt;div&gt;&lt;span style=&quot;font-size: 10px;&quot;&gt;объекта недвижимости&lt;/span&gt;&lt;/div&gt;" style="rounded=1;whiteSpace=wrap;html=1;arcSize=40;fontFamily=Helvetica;fontSize=11;labelBackgroundColor=default;" parent="3" vertex="1">
          <mxGeometry x="80.5" y="363" width="120" height="48" as="geometry" />
        </mxCell>
        <mxCell id="YSQf1G4QFxF4FJ_mTdTg-52" value="Подтверждение" style="edgeStyle=orthogonalEdgeStyle;html=1;align=left;verticalAlign=bottom;endArrow=open;endSize=8;rounded=0;fontFamily=Helvetica;fontSize=11;fontColor=default;labelBackgroundColor=default;entryX=0;entryY=0.5;entryDx=0;entryDy=0;" parent="3" source="YSQf1G4QFxF4FJ_mTdTg-51" target="YSQf1G4QFxF4FJ_mTdTg-58" edge="1">
          <mxGeometry x="-1" relative="1" as="geometry">
            <mxPoint x="75.5" y="387" as="targetPoint" />
          </mxGeometry>
        </mxCell>
        <mxCell id="YSQf1G4QFxF4FJ_mTdTg-61" value="" style="endArrow=open;html=1;rounded=0;strokeColor=default;align=center;verticalAlign=middle;fontFamily=Helvetica;fontSize=11;fontColor=default;labelBackgroundColor=default;edgeStyle=orthogonalEdgeStyle;exitX=0.5;exitY=1;exitDx=0;exitDy=0;entryX=1;entryY=0.5;entryDx=0;entryDy=0;endFill=0;" parent="3" source="YSQf1G4QFxF4FJ_mTdTg-47" target="YSQf1G4QFxF4FJ_mTdTg-50" edge="1">
          <mxGeometry width="50" height="50" relative="1" as="geometry">
            <mxPoint x="-129.5" y="282" as="sourcePoint" />
            <mxPoint x="90.5" y="306" as="targetPoint" />
          </mxGeometry>
        </mxCell>
        <mxCell id="YSQf1G4QFxF4FJ_mTdTg-62" value="&lt;span style=&quot;font-size: 10px;&quot;&gt;Принятие решения&lt;/span&gt;&lt;div&gt;&lt;span style=&quot;font-size: 10px;&quot;&gt;о заключении сделки&lt;/span&gt;&lt;/div&gt;" style="rounded=1;whiteSpace=wrap;html=1;arcSize=40;fontFamily=Helvetica;fontSize=11;labelBackgroundColor=default;" parent="3" vertex="1">
          <mxGeometry x="-200" y="466" width="120" height="40" as="geometry" />
        </mxCell>
        <mxCell id="YSQf1G4QFxF4FJ_mTdTg-64" value="" style="rhombus;whiteSpace=wrap;html=1;fontFamily=Helvetica;fontSize=11;labelBackgroundColor=default;" parent="3" vertex="1">
          <mxGeometry x="-150" y="526" width="20" height="10" as="geometry" />
        </mxCell>
        <mxCell id="YSQf1G4QFxF4FJ_mTdTg-65" value="" style="edgeStyle=orthogonalEdgeStyle;html=1;align=left;verticalAlign=top;endArrow=open;endSize=8;rounded=0;fontFamily=Helvetica;fontSize=11;fontColor=default;labelBackgroundColor=default;exitX=0.5;exitY=1;exitDx=0;exitDy=0;" parent="3" source="YSQf1G4QFxF4FJ_mTdTg-68" edge="1">
          <mxGeometry x="1" y="52" relative="1" as="geometry">
            <mxPoint x="-140.5" y="596" as="targetPoint" />
            <Array as="points">
              <mxPoint x="-140" y="596" />
            </Array>
            <mxPoint x="-8" y="-2" as="offset" />
          </mxGeometry>
        </mxCell>
        <mxCell id="YSQf1G4QFxF4FJ_mTdTg-70" value="" style="edgeStyle=orthogonalEdgeStyle;html=1;align=left;verticalAlign=top;endArrow=open;endSize=8;rounded=0;fontFamily=Helvetica;fontSize=11;fontColor=default;labelBackgroundColor=default;exitX=0.5;exitY=1;exitDx=0;exitDy=0;" parent="3" source="YSQf1G4QFxF4FJ_mTdTg-64" target="YSQf1G4QFxF4FJ_mTdTg-68" edge="1">
          <mxGeometry x="1" y="52" relative="1" as="geometry">
            <mxPoint x="24" y="724" as="targetPoint" />
            <Array as="points" />
            <mxPoint x="-8" y="-2" as="offset" />
            <mxPoint x="24.5" y="664" as="sourcePoint" />
          </mxGeometry>
        </mxCell>
        <mxCell id="YSQf1G4QFxF4FJ_mTdTg-68" value="" style="ellipse;shape=endState;fillColor=#000000;strokeColor=#000000;" parent="3" vertex="1">
          <mxGeometry x="-155" y="566" width="30" height="30" as="geometry" />
        </mxCell>
        <mxCell id="YSQf1G4QFxF4FJ_mTdTg-69" value="&lt;span style=&quot;font-size: 10px;&quot;&gt;Подготовка необходимых документов&amp;nbsp;&lt;/span&gt;&lt;div&gt;&lt;span style=&quot;font-size: 10px;&quot;&gt;для заключения сделки&lt;/span&gt;&lt;/div&gt;" style="rounded=1;whiteSpace=wrap;html=1;arcSize=40;fontFamily=Helvetica;fontSize=11;labelBackgroundColor=default;" parent="3" vertex="1">
          <mxGeometry x="50.75" y="498" width="179.5" height="68" as="geometry" />
        </mxCell>
        <mxCell id="YSQf1G4QFxF4FJ_mTdTg-67" value="Согласие" style="edgeStyle=orthogonalEdgeStyle;html=1;align=left;verticalAlign=bottom;endArrow=open;endSize=8;rounded=0;fontFamily=Helvetica;fontSize=11;fontColor=default;labelBackgroundColor=default;entryX=0;entryY=0.5;entryDx=0;entryDy=0;" parent="3" target="YSQf1G4QFxF4FJ_mTdTg-69" edge="1">
          <mxGeometry x="-1" relative="1" as="geometry">
            <mxPoint x="50.75" y="530" as="targetPoint" />
            <mxPoint x="-130" y="531" as="sourcePoint" />
          </mxGeometry>
        </mxCell>
        <mxCell id="YSQf1G4QFxF4FJ_mTdTg-72" value="" style="endArrow=open;html=1;rounded=0;strokeColor=default;align=center;verticalAlign=middle;fontFamily=Helvetica;fontSize=11;fontColor=default;labelBackgroundColor=default;edgeStyle=orthogonalEdgeStyle;exitX=0.5;exitY=1;exitDx=0;exitDy=0;entryX=1;entryY=0.5;entryDx=0;entryDy=0;endFill=0;" parent="3" source="YSQf1G4QFxF4FJ_mTdTg-58" target="YSQf1G4QFxF4FJ_mTdTg-62" edge="1">
          <mxGeometry width="50" height="50" relative="1" as="geometry">
            <mxPoint x="-129.5" y="282" as="sourcePoint" />
            <mxPoint x="90.5" y="306" as="targetPoint" />
          </mxGeometry>
        </mxCell>
        <mxCell id="YSQf1G4QFxF4FJ_mTdTg-79" value="" style="edgeStyle=orthogonalEdgeStyle;html=1;align=left;verticalAlign=top;endArrow=open;endSize=8;rounded=0;fontFamily=Helvetica;fontSize=11;fontColor=default;labelBackgroundColor=default;exitX=0.5;exitY=1;exitDx=0;exitDy=0;entryX=0.5;entryY=0;entryDx=0;entryDy=0;" parent="3" source="YSQf1G4QFxF4FJ_mTdTg-62" target="YSQf1G4QFxF4FJ_mTdTg-64" edge="1">
          <mxGeometry x="1" y="52" relative="1" as="geometry">
            <mxPoint x="-54.5" y="542" as="targetPoint" />
            <Array as="points" />
            <mxPoint x="-8" y="-2" as="offset" />
            <mxPoint x="-54.5" y="512" as="sourcePoint" />
          </mxGeometry>
        </mxCell>
        <mxCell id="4" value="Система агентства" style="swimlane;whiteSpace=wrap" parent="1" vertex="1">
          <mxGeometry x="716" y="22" width="280" height="782" as="geometry" />
        </mxCell>
        <mxCell id="38" value="" style="ellipse;shape=endState;fillColor=#000000;strokeColor=#000000;" parent="4" vertex="1">
          <mxGeometry x="130" y="742" width="30" height="30" as="geometry" />
        </mxCell>
        <mxCell id="YSQf1G4QFxF4FJ_mTdTg-40" value="&lt;font style=&quot;font-size: 10px;&quot;&gt;Подтверждение&lt;/font&gt;&lt;div&gt;&lt;font style=&quot;font-size: 10px;&quot;&gt;регистрации&lt;/font&gt;&lt;/div&gt;" style="rounded=1;whiteSpace=wrap;html=1;arcSize=40;fontFamily=Helvetica;fontSize=11;labelBackgroundColor=default;" parent="4" vertex="1">
          <mxGeometry x="80" y="92" width="120" height="40" as="geometry" />
        </mxCell>
        <mxCell id="YSQf1G4QFxF4FJ_mTdTg-75" value="&lt;span style=&quot;font-size: 10px;&quot;&gt;Внесение сделки&lt;/span&gt;&lt;div&gt;&lt;span style=&quot;font-size: 10px;&quot;&gt;в базу данных агентства&lt;/span&gt;&lt;/div&gt;" style="rounded=1;whiteSpace=wrap;html=1;arcSize=40;fontFamily=Helvetica;fontSize=11;labelBackgroundColor=default;" parent="4" vertex="1">
          <mxGeometry x="85" y="672" width="120" height="48" as="geometry" />
        </mxCell>
        <mxCell id="YSQf1G4QFxF4FJ_mTdTg-77" value="" style="endArrow=open;html=1;rounded=0;strokeColor=default;align=center;verticalAlign=middle;fontFamily=Helvetica;fontSize=11;fontColor=default;labelBackgroundColor=default;edgeStyle=orthogonalEdgeStyle;exitX=0.5;exitY=1;exitDx=0;exitDy=0;entryX=0.5;entryY=0;entryDx=0;entryDy=0;endFill=0;" parent="4" source="YSQf1G4QFxF4FJ_mTdTg-75" target="38" edge="1">
          <mxGeometry width="50" height="50" relative="1" as="geometry">
            <mxPoint x="-129" y="421" as="sourcePoint" />
            <mxPoint x="-129" y="508" as="targetPoint" />
          </mxGeometry>
        </mxCell>
        <mxCell id="YSQf1G4QFxF4FJ_mTdTg-46" value="" style="edgeStyle=orthogonalEdgeStyle;orthogonalLoop=1;jettySize=auto;html=1;rounded=0;strokeColor=default;align=center;verticalAlign=middle;fontFamily=Helvetica;fontSize=11;fontColor=default;labelBackgroundColor=default;endArrow=open;endFill=0;entryX=1;entryY=0.5;entryDx=0;entryDy=0;exitX=0.5;exitY=1;exitDx=0;exitDy=0;" parent="1" source="YSQf1G4QFxF4FJ_mTdTg-40" target="YSQf1G4QFxF4FJ_mTdTg-45" edge="1">
          <mxGeometry width="100" relative="1" as="geometry">
            <mxPoint x="791.5" y="234" as="sourcePoint" />
            <mxPoint x="806" y="144" as="targetPoint" />
          </mxGeometry>
        </mxCell>
        <mxCell id="YSQf1G4QFxF4FJ_mTdTg-60" value="" style="endArrow=open;html=1;rounded=0;strokeColor=default;align=center;verticalAlign=middle;fontFamily=Helvetica;fontSize=11;fontColor=default;labelBackgroundColor=default;edgeStyle=orthogonalEdgeStyle;exitX=0.5;exitY=1;exitDx=0;exitDy=0;entryX=0;entryY=0.5;entryDx=0;entryDy=0;endFill=0;" parent="1" source="YSQf1G4QFxF4FJ_mTdTg-59" target="YSQf1G4QFxF4FJ_mTdTg-47" edge="1">
          <mxGeometry width="50" height="50" relative="1" as="geometry">
            <mxPoint x="306" y="234" as="sourcePoint" />
            <mxPoint x="306" y="264" as="targetPoint" />
          </mxGeometry>
        </mxCell>
        <mxCell id="YSQf1G4QFxF4FJ_mTdTg-74" value="" style="endArrow=open;html=1;rounded=0;strokeColor=default;align=center;verticalAlign=middle;fontFamily=Helvetica;fontSize=11;fontColor=default;labelBackgroundColor=default;edgeStyle=orthogonalEdgeStyle;exitX=0.5;exitY=1;exitDx=0;exitDy=0;entryX=1;entryY=0.5;entryDx=0;entryDy=0;endFill=0;" parent="1" source="YSQf1G4QFxF4FJ_mTdTg-69" target="YSQf1G4QFxF4FJ_mTdTg-73" edge="1">
          <mxGeometry width="50" height="50" relative="1" as="geometry">
            <mxPoint x="587" y="443" as="sourcePoint" />
            <mxPoint x="587" y="530" as="targetPoint" />
          </mxGeometry>
        </mxCell>
        <mxCell id="YSQf1G4QFxF4FJ_mTdTg-76" style="edgeStyle=orthogonalEdgeStyle;rounded=0;orthogonalLoop=1;jettySize=auto;html=1;exitX=0.5;exitY=1;exitDx=0;exitDy=0;entryX=0;entryY=0.5;entryDx=0;entryDy=0;strokeColor=default;align=center;verticalAlign=middle;fontFamily=Helvetica;fontSize=11;fontColor=default;labelBackgroundColor=default;endArrow=open;endFill=0;" parent="1" source="YSQf1G4QFxF4FJ_mTdTg-73" target="YSQf1G4QFxF4FJ_mTdTg-75" edge="1">
          <mxGeometry relative="1" as="geometry" />
        </mxCell>
        <mxCell id="bIQBo1IJ03Wa2QEP7anG-38" value="" style="edgeStyle=orthogonalEdgeStyle;rounded=0;orthogonalLoop=1;jettySize=auto;html=1;strokeColor=default;align=center;verticalAlign=middle;fontFamily=Helvetica;fontSize=11;fontColor=default;labelBackgroundColor=default;endArrow=open;endFill=0;" edge="1" parent="1" source="bIQBo1IJ03Wa2QEP7anG-39">
          <mxGeometry relative="1" as="geometry">
            <mxPoint x="1557.9827586206898" y="43" as="targetPoint" />
          </mxGeometry>
        </mxCell>
        <mxCell id="bIQBo1IJ03Wa2QEP7anG-39" value="" style="ellipse;shape=startState;fillColor=#000000;strokeColor=none;" vertex="1" parent="1">
          <mxGeometry x="1543" y="-9" width="30" height="30" as="geometry" />
        </mxCell>
        <mxCell id="bIQBo1IJ03Wa2QEP7anG-40" value="&lt;font style=&quot;font-size: 10px;&quot;&gt;Регистрация на сайте&lt;/font&gt;" style="rounded=1;whiteSpace=wrap;html=1;arcSize=40;fontFamily=Helvetica;fontSize=11;labelBackgroundColor=default;" vertex="1" parent="1">
          <mxGeometry x="1498" y="43" width="120" height="40" as="geometry" />
        </mxCell>
        <mxCell id="bIQBo1IJ03Wa2QEP7anG-42" value="&lt;span style=&quot;font-size: 10px;&quot;&gt;Найти интересующий&lt;/span&gt;&lt;div&gt;&lt;span style=&quot;font-size: 10px;&quot;&gt;объект недвижимости&lt;/span&gt;&lt;/div&gt;" style="rounded=1;whiteSpace=wrap;html=1;arcSize=40;fontFamily=Helvetica;fontSize=11;labelBackgroundColor=default;" vertex="1" parent="1">
          <mxGeometry x="1498" y="161" width="120" height="40" as="geometry" />
        </mxCell>
        <mxCell id="bIQBo1IJ03Wa2QEP7anG-43" value="&lt;div&gt;&lt;span style=&quot;font-size: 10px;&quot;&gt;Запрос на осмотр&lt;/span&gt;&lt;/div&gt;&lt;div&gt;&lt;font style=&quot;font-size: 10px;&quot;&gt;объекта недвижимости&lt;/font&gt;&lt;/div&gt;" style="rounded=1;whiteSpace=wrap;html=1;arcSize=40;fontFamily=Helvetica;fontSize=11;labelBackgroundColor=default;" vertex="1" parent="1">
          <mxGeometry x="1498" y="231" width="120" height="40" as="geometry" />
        </mxCell>
        <mxCell id="bIQBo1IJ03Wa2QEP7anG-44" value="" style="endArrow=open;html=1;rounded=0;strokeColor=default;align=center;verticalAlign=middle;fontFamily=Helvetica;fontSize=11;fontColor=default;labelBackgroundColor=default;edgeStyle=orthogonalEdgeStyle;exitX=0.5;exitY=1;exitDx=0;exitDy=0;entryX=0.5;entryY=0;entryDx=0;entryDy=0;endFill=0;" edge="1" parent="1" source="bIQBo1IJ03Wa2QEP7anG-42" target="bIQBo1IJ03Wa2QEP7anG-43">
          <mxGeometry width="50" height="50" relative="1" as="geometry">
            <mxPoint x="1793.5" y="371" as="sourcePoint" />
            <mxPoint x="1843.5" y="321" as="targetPoint" />
          </mxGeometry>
        </mxCell>
        <mxCell id="bIQBo1IJ03Wa2QEP7anG-45" value="Отмена" style="text;html=1;align=center;verticalAlign=middle;resizable=0;points=[];autosize=1;strokeColor=none;fillColor=none;fontFamily=Helvetica;fontSize=11;fontColor=default;labelBackgroundColor=default;" vertex="1" parent="1">
          <mxGeometry x="1504.5" y="468" width="60" height="30" as="geometry" />
        </mxCell>
        <mxCell id="bIQBo1IJ03Wa2QEP7anG-46" value="" style="ellipse;shape=endState;fillColor=#000000;strokeColor=#000000;" vertex="1" parent="1">
          <mxGeometry x="1543" y="502" width="30" height="30" as="geometry" />
        </mxCell>
        <mxCell id="bIQBo1IJ03Wa2QEP7anG-47" value="&lt;span style=&quot;font-size: 10px;&quot;&gt;Заключение сделки&lt;/span&gt;" style="rounded=1;whiteSpace=wrap;html=1;arcSize=40;fontFamily=Helvetica;fontSize=11;labelBackgroundColor=default;" vertex="1" parent="1">
          <mxGeometry x="1498" y="692" width="120" height="48" as="geometry" />
        </mxCell>
        <mxCell id="bIQBo1IJ03Wa2QEP7anG-48" value="" style="edgeStyle=orthogonalEdgeStyle;html=1;align=left;verticalAlign=top;endArrow=open;endSize=8;rounded=0;fontFamily=Helvetica;fontSize=11;fontColor=default;labelBackgroundColor=default;exitX=0.5;exitY=1;exitDx=0;exitDy=0;" edge="1" parent="1">
          <mxGeometry x="1" y="52" relative="1" as="geometry">
            <mxPoint x="1557.8600000000001" y="502" as="targetPoint" />
            <Array as="points" />
            <mxPoint x="-8" y="-2" as="offset" />
            <mxPoint x="1557.8600000000001" y="472" as="sourcePoint" />
          </mxGeometry>
        </mxCell>
        <mxCell id="bIQBo1IJ03Wa2QEP7anG-49" value="Отказ" style="text;html=1;align=center;verticalAlign=middle;resizable=0;points=[];autosize=1;strokeColor=none;fillColor=none;fontFamily=Helvetica;fontSize=11;fontColor=default;labelBackgroundColor=default;" vertex="1" parent="1">
          <mxGeometry x="1513.5" y="612" width="50" height="30" as="geometry" />
        </mxCell>
        <mxCell id="bIQBo1IJ03Wa2QEP7anG-50" value="&lt;span style=&quot;font-size: 10px;&quot;&gt;Подтверждение время&lt;/span&gt;&lt;div&gt;&lt;span style=&quot;font-size: 10px;&quot;&gt;осмотра&lt;/span&gt;&lt;/div&gt;" style="rounded=1;whiteSpace=wrap;html=1;arcSize=40;fontFamily=Helvetica;fontSize=11;labelBackgroundColor=default;" vertex="1" parent="1">
          <mxGeometry x="1498" y="402" width="120" height="40" as="geometry" />
        </mxCell>
        <mxCell id="bIQBo1IJ03Wa2QEP7anG-51" value="" style="rhombus;whiteSpace=wrap;html=1;fontFamily=Helvetica;fontSize=11;labelBackgroundColor=default;" vertex="1" parent="1">
          <mxGeometry x="1548" y="462" width="20" height="10" as="geometry" />
        </mxCell>
        <mxCell id="bIQBo1IJ03Wa2QEP7anG-52" value="" style="endArrow=open;html=1;rounded=0;strokeColor=default;align=center;verticalAlign=middle;fontFamily=Helvetica;fontSize=11;fontColor=default;labelBackgroundColor=default;edgeStyle=orthogonalEdgeStyle;exitX=0.5;exitY=1;exitDx=0;exitDy=0;entryX=0.5;entryY=0;entryDx=0;entryDy=0;endFill=0;" edge="1" parent="1" source="bIQBo1IJ03Wa2QEP7anG-50" target="bIQBo1IJ03Wa2QEP7anG-51">
          <mxGeometry width="50" height="50" relative="1" as="geometry">
            <mxPoint x="1583.5" y="512" as="sourcePoint" />
            <mxPoint x="1633.5" y="462" as="targetPoint" />
          </mxGeometry>
        </mxCell>
        <mxCell id="bIQBo1IJ03Wa2QEP7anG-53" value="&lt;span style=&quot;font-size: 10px;&quot;&gt;Согласование&amp;nbsp;&lt;/span&gt;&lt;div&gt;&lt;span style=&quot;font-size: 10px;&quot;&gt;даты и времени&lt;/span&gt;&lt;div&gt;&lt;span style=&quot;font-size: 10px;&quot;&gt;осмотра&lt;/span&gt;&lt;/div&gt;&lt;/div&gt;" style="rounded=1;whiteSpace=wrap;html=1;arcSize=40;fontFamily=Helvetica;fontSize=11;labelBackgroundColor=default;" vertex="1" parent="1">
          <mxGeometry x="1498" y="298" width="120" height="48" as="geometry" />
        </mxCell>
        <mxCell id="bIQBo1IJ03Wa2QEP7anG-54" value="&lt;span style=&quot;font-size: 10px;&quot;&gt;Проведение осмотра&lt;/span&gt;&lt;div&gt;&lt;span style=&quot;font-size: 10px;&quot;&gt;объекта недвижимости&lt;/span&gt;&lt;/div&gt;" style="rounded=1;whiteSpace=wrap;html=1;arcSize=40;fontFamily=Helvetica;fontSize=11;labelBackgroundColor=default;" vertex="1" parent="1">
          <mxGeometry x="1778.5" y="443" width="120" height="48" as="geometry" />
        </mxCell>
        <mxCell id="bIQBo1IJ03Wa2QEP7anG-55" value="Подтверждение" style="edgeStyle=orthogonalEdgeStyle;html=1;align=left;verticalAlign=bottom;endArrow=open;endSize=8;rounded=0;fontFamily=Helvetica;fontSize=11;fontColor=default;labelBackgroundColor=default;entryX=0;entryY=0.5;entryDx=0;entryDy=0;" edge="1" parent="1" source="bIQBo1IJ03Wa2QEP7anG-51" target="bIQBo1IJ03Wa2QEP7anG-54">
          <mxGeometry x="-1" relative="1" as="geometry">
            <mxPoint x="1773.5" y="467" as="targetPoint" />
          </mxGeometry>
        </mxCell>
        <mxCell id="bIQBo1IJ03Wa2QEP7anG-56" value="" style="endArrow=open;html=1;rounded=0;strokeColor=default;align=center;verticalAlign=middle;fontFamily=Helvetica;fontSize=11;fontColor=default;labelBackgroundColor=default;edgeStyle=orthogonalEdgeStyle;exitX=0.5;exitY=1;exitDx=0;exitDy=0;entryX=0.5;entryY=0;entryDx=0;entryDy=0;endFill=0;" edge="1" parent="1" source="bIQBo1IJ03Wa2QEP7anG-53" target="bIQBo1IJ03Wa2QEP7anG-50">
          <mxGeometry width="50" height="50" relative="1" as="geometry">
            <mxPoint x="1838.5000000000005" y="400.0000000000002" as="sourcePoint" />
            <mxPoint x="1788.5" y="386" as="targetPoint" />
          </mxGeometry>
        </mxCell>
        <mxCell id="bIQBo1IJ03Wa2QEP7anG-57" value="&lt;span style=&quot;font-size: 10px;&quot;&gt;Принятие решения&lt;/span&gt;&lt;div&gt;&lt;span style=&quot;font-size: 10px;&quot;&gt;о заключении сделки&lt;/span&gt;&lt;/div&gt;" style="rounded=1;whiteSpace=wrap;html=1;arcSize=40;fontFamily=Helvetica;fontSize=11;labelBackgroundColor=default;" vertex="1" parent="1">
          <mxGeometry x="1498" y="546" width="120" height="40" as="geometry" />
        </mxCell>
        <mxCell id="bIQBo1IJ03Wa2QEP7anG-58" value="" style="rhombus;whiteSpace=wrap;html=1;fontFamily=Helvetica;fontSize=11;labelBackgroundColor=default;" vertex="1" parent="1">
          <mxGeometry x="1548" y="606" width="20" height="10" as="geometry" />
        </mxCell>
        <mxCell id="bIQBo1IJ03Wa2QEP7anG-59" value="" style="edgeStyle=orthogonalEdgeStyle;html=1;align=left;verticalAlign=top;endArrow=open;endSize=8;rounded=0;fontFamily=Helvetica;fontSize=11;fontColor=default;labelBackgroundColor=default;exitX=0.5;exitY=1;exitDx=0;exitDy=0;" edge="1" parent="1" source="bIQBo1IJ03Wa2QEP7anG-61">
          <mxGeometry x="1" y="52" relative="1" as="geometry">
            <mxPoint x="1557.5" y="676" as="targetPoint" />
            <Array as="points">
              <mxPoint x="1558" y="676" />
            </Array>
            <mxPoint x="-8" y="-2" as="offset" />
          </mxGeometry>
        </mxCell>
        <mxCell id="bIQBo1IJ03Wa2QEP7anG-60" value="" style="edgeStyle=orthogonalEdgeStyle;html=1;align=left;verticalAlign=top;endArrow=open;endSize=8;rounded=0;fontFamily=Helvetica;fontSize=11;fontColor=default;labelBackgroundColor=default;exitX=0.5;exitY=1;exitDx=0;exitDy=0;" edge="1" parent="1" source="bIQBo1IJ03Wa2QEP7anG-58" target="bIQBo1IJ03Wa2QEP7anG-61">
          <mxGeometry x="1" y="52" relative="1" as="geometry">
            <mxPoint x="1722" y="804" as="targetPoint" />
            <Array as="points" />
            <mxPoint x="-8" y="-2" as="offset" />
            <mxPoint x="1722.5" y="744" as="sourcePoint" />
          </mxGeometry>
        </mxCell>
        <mxCell id="bIQBo1IJ03Wa2QEP7anG-61" value="" style="ellipse;shape=endState;fillColor=#000000;strokeColor=#000000;" vertex="1" parent="1">
          <mxGeometry x="1543" y="646" width="30" height="30" as="geometry" />
        </mxCell>
        <mxCell id="bIQBo1IJ03Wa2QEP7anG-62" value="&lt;span style=&quot;font-size: 10px;&quot;&gt;Подготовка необходимых документов&amp;nbsp;&lt;/span&gt;&lt;div&gt;&lt;span style=&quot;font-size: 10px;&quot;&gt;для заключения сделки&lt;/span&gt;&lt;/div&gt;" style="rounded=1;whiteSpace=wrap;html=1;arcSize=40;fontFamily=Helvetica;fontSize=11;labelBackgroundColor=default;" vertex="1" parent="1">
          <mxGeometry x="1748.75" y="578" width="179.5" height="68" as="geometry" />
        </mxCell>
        <mxCell id="bIQBo1IJ03Wa2QEP7anG-63" value="Согласие" style="edgeStyle=orthogonalEdgeStyle;html=1;align=left;verticalAlign=bottom;endArrow=open;endSize=8;rounded=0;fontFamily=Helvetica;fontSize=11;fontColor=default;labelBackgroundColor=default;entryX=0;entryY=0.5;entryDx=0;entryDy=0;" edge="1" parent="1" target="bIQBo1IJ03Wa2QEP7anG-62">
          <mxGeometry x="-1" relative="1" as="geometry">
            <mxPoint x="1748.75" y="610" as="targetPoint" />
            <mxPoint x="1568" y="611" as="sourcePoint" />
          </mxGeometry>
        </mxCell>
        <mxCell id="bIQBo1IJ03Wa2QEP7anG-64" value="" style="endArrow=open;html=1;rounded=0;strokeColor=default;align=center;verticalAlign=middle;fontFamily=Helvetica;fontSize=11;fontColor=default;labelBackgroundColor=default;edgeStyle=orthogonalEdgeStyle;exitX=0.5;exitY=1;exitDx=0;exitDy=0;entryX=1;entryY=0.5;entryDx=0;entryDy=0;endFill=0;" edge="1" parent="1" source="bIQBo1IJ03Wa2QEP7anG-54" target="bIQBo1IJ03Wa2QEP7anG-57">
          <mxGeometry width="50" height="50" relative="1" as="geometry">
            <mxPoint x="1568.5" y="362" as="sourcePoint" />
            <mxPoint x="1788.5" y="386" as="targetPoint" />
          </mxGeometry>
        </mxCell>
        <mxCell id="bIQBo1IJ03Wa2QEP7anG-65" value="" style="edgeStyle=orthogonalEdgeStyle;html=1;align=left;verticalAlign=top;endArrow=open;endSize=8;rounded=0;fontFamily=Helvetica;fontSize=11;fontColor=default;labelBackgroundColor=default;exitX=0.5;exitY=1;exitDx=0;exitDy=0;entryX=0.5;entryY=0;entryDx=0;entryDy=0;" edge="1" parent="1" source="bIQBo1IJ03Wa2QEP7anG-57" target="bIQBo1IJ03Wa2QEP7anG-58">
          <mxGeometry x="1" y="52" relative="1" as="geometry">
            <mxPoint x="1643.5" y="622" as="targetPoint" />
            <Array as="points" />
            <mxPoint x="-8" y="-2" as="offset" />
            <mxPoint x="1643.5" y="592" as="sourcePoint" />
          </mxGeometry>
        </mxCell>
        <mxCell id="bIQBo1IJ03Wa2QEP7anG-66" value="" style="ellipse;shape=endState;fillColor=#000000;strokeColor=#000000;" vertex="1" parent="1">
          <mxGeometry x="1543" y="866" width="30" height="30" as="geometry" />
        </mxCell>
        <mxCell id="bIQBo1IJ03Wa2QEP7anG-67" value="&lt;font style=&quot;font-size: 10px;&quot;&gt;Подтверждение&lt;/font&gt;&lt;div&gt;&lt;font style=&quot;font-size: 10px;&quot;&gt;регистрации&lt;/font&gt;&lt;/div&gt;" style="rounded=1;whiteSpace=wrap;html=1;arcSize=40;fontFamily=Helvetica;fontSize=11;labelBackgroundColor=default;" vertex="1" parent="1">
          <mxGeometry x="1498" y="102" width="120" height="40" as="geometry" />
        </mxCell>
        <mxCell id="bIQBo1IJ03Wa2QEP7anG-68" value="&lt;span style=&quot;font-size: 10px;&quot;&gt;Внесение сделки&lt;/span&gt;&lt;div&gt;&lt;span style=&quot;font-size: 10px;&quot;&gt;в базу данных агентства&lt;/span&gt;&lt;/div&gt;" style="rounded=1;whiteSpace=wrap;html=1;arcSize=40;fontFamily=Helvetica;fontSize=11;labelBackgroundColor=default;" vertex="1" parent="1">
          <mxGeometry x="1498" y="796" width="120" height="48" as="geometry" />
        </mxCell>
        <mxCell id="bIQBo1IJ03Wa2QEP7anG-69" value="" style="endArrow=open;html=1;rounded=0;strokeColor=default;align=center;verticalAlign=middle;fontFamily=Helvetica;fontSize=11;fontColor=default;labelBackgroundColor=default;edgeStyle=orthogonalEdgeStyle;exitX=0.5;exitY=1;exitDx=0;exitDy=0;entryX=0.5;entryY=0;entryDx=0;entryDy=0;endFill=0;" edge="1" parent="1" target="bIQBo1IJ03Wa2QEP7anG-66">
          <mxGeometry width="50" height="50" relative="1" as="geometry">
            <mxPoint x="1558" y="844" as="sourcePoint" />
            <mxPoint x="1284" y="632" as="targetPoint" />
          </mxGeometry>
        </mxCell>
        <mxCell id="bIQBo1IJ03Wa2QEP7anG-70" value="" style="edgeStyle=orthogonalEdgeStyle;orthogonalLoop=1;jettySize=auto;html=1;rounded=0;strokeColor=default;align=center;verticalAlign=middle;fontFamily=Helvetica;fontSize=11;fontColor=default;labelBackgroundColor=default;endArrow=open;endFill=0;entryX=0.5;entryY=0;entryDx=0;entryDy=0;exitX=0.5;exitY=1;exitDx=0;exitDy=0;" edge="1" parent="1" source="bIQBo1IJ03Wa2QEP7anG-67" target="bIQBo1IJ03Wa2QEP7anG-42">
          <mxGeometry width="100" relative="1" as="geometry">
            <mxPoint x="1844" y="148" as="sourcePoint" />
            <mxPoint x="2068" y="121" as="targetPoint" />
          </mxGeometry>
        </mxCell>
        <mxCell id="bIQBo1IJ03Wa2QEP7anG-71" value="" style="endArrow=open;html=1;rounded=0;strokeColor=default;align=center;verticalAlign=middle;fontFamily=Helvetica;fontSize=11;fontColor=default;labelBackgroundColor=default;edgeStyle=orthogonalEdgeStyle;exitX=0.5;exitY=1;exitDx=0;exitDy=0;entryX=0.5;entryY=0;entryDx=0;entryDy=0;endFill=0;" edge="1" parent="1" source="bIQBo1IJ03Wa2QEP7anG-43" target="bIQBo1IJ03Wa2QEP7anG-53">
          <mxGeometry width="50" height="50" relative="1" as="geometry">
            <mxPoint x="1568" y="211" as="sourcePoint" />
            <mxPoint x="1568" y="241" as="targetPoint" />
          </mxGeometry>
        </mxCell>
        <mxCell id="bIQBo1IJ03Wa2QEP7anG-72" value="" style="endArrow=open;html=1;rounded=0;strokeColor=default;align=center;verticalAlign=middle;fontFamily=Helvetica;fontSize=11;fontColor=default;labelBackgroundColor=default;edgeStyle=orthogonalEdgeStyle;exitX=0.5;exitY=1;exitDx=0;exitDy=0;entryX=1;entryY=0.5;entryDx=0;entryDy=0;endFill=0;" edge="1" parent="1" source="bIQBo1IJ03Wa2QEP7anG-62" target="bIQBo1IJ03Wa2QEP7anG-47">
          <mxGeometry width="50" height="50" relative="1" as="geometry">
            <mxPoint x="1849" y="501" as="sourcePoint" />
            <mxPoint x="1849" y="588" as="targetPoint" />
          </mxGeometry>
        </mxCell>
        <mxCell id="bIQBo1IJ03Wa2QEP7anG-73" style="edgeStyle=orthogonalEdgeStyle;rounded=0;orthogonalLoop=1;jettySize=auto;html=1;exitX=0.5;exitY=1;exitDx=0;exitDy=0;entryX=0.5;entryY=0;entryDx=0;entryDy=0;strokeColor=default;align=center;verticalAlign=middle;fontFamily=Helvetica;fontSize=11;fontColor=default;labelBackgroundColor=default;endArrow=open;endFill=0;" edge="1" parent="1" source="bIQBo1IJ03Wa2QEP7anG-47" target="bIQBo1IJ03Wa2QEP7anG-68">
          <mxGeometry relative="1" as="geometry">
            <mxPoint x="2063" y="776" as="targetPoint" />
          </mxGeometry>
        </mxCell>
        <mxCell id="bIQBo1IJ03Wa2QEP7anG-74" value="" style="edgeStyle=none;orthogonalLoop=1;jettySize=auto;html=1;rounded=0;strokeColor=default;align=center;verticalAlign=middle;fontFamily=Helvetica;fontSize=11;fontColor=default;labelBackgroundColor=default;endArrow=open;endFill=0;entryX=0.5;entryY=0;entryDx=0;entryDy=0;exitX=0.5;exitY=1;exitDx=0;exitDy=0;" edge="1" parent="1" source="bIQBo1IJ03Wa2QEP7anG-40" target="bIQBo1IJ03Wa2QEP7anG-67">
          <mxGeometry width="100" relative="1" as="geometry">
            <mxPoint x="1628" y="72.66" as="sourcePoint" />
            <mxPoint x="2068" y="73" as="targetPoint" />
            <Array as="points" />
          </mxGeometry>
        </mxCell>
      </root>
    </mxGraphModel>
  </diagram>
</mxfile>
